<svg width="35" height="35" viewBox="0 0 35 35" fill="none" xmlns="http://www.w3.org/2000/svg">
<g clip-path="url(#clip0_15_766)">
<path d="M18.6025 2.20071C16.4475 2.19677 14.3131 2.61853 12.3216 3.44177C10.3301 4.26501 8.5209 5.47352 6.99777 6.9979C0.599336 13.3963 0.599336 23.8045 6.99996 30.2029C13.3984 36.5991 23.8065 36.5991 30.205 30.2029C36.6012 23.8045 36.6012 13.3963 30.205 6.9979C28.6827 5.47355 26.8742 4.26503 24.8835 3.44177C22.8927 2.61852 20.7589 2.19675 18.6046 2.20071H18.6025ZM18.6025 4.37509C22.2381 4.37509 25.8737 5.76415 28.6562 8.54446C29.9786 9.86398 31.0278 11.4314 31.7437 13.1569C32.4595 14.8825 32.828 16.7323 32.828 18.6004C32.828 20.4685 32.4595 22.3183 31.7437 24.0439C31.0278 25.7694 29.9786 27.3368 28.6562 28.6563C27.3367 29.9788 25.7693 31.0279 24.0437 31.7438C22.3182 32.4596 20.4684 32.8281 18.6003 32.8281C16.7321 32.8281 14.8823 32.4596 13.1568 31.7438C11.4313 31.0279 9.86386 29.9788 8.54434 28.6563C7.22191 27.3368 6.17273 25.7694 5.45688 24.0439C4.74102 22.3183 4.37255 20.4685 4.37255 18.6004C4.37255 16.7323 4.74102 14.8825 5.45688 13.1569C6.17273 11.4314 7.22191 9.86398 8.54434 8.54446C9.86345 7.22104 11.4311 6.1714 13.1573 5.45588C14.8834 4.74035 16.7339 4.37305 18.6025 4.37509ZM25.0775 14.2232C24.8703 14.2427 24.673 14.3209 24.5087 14.4485L16.5156 20.4423L12.8121 16.741C12.7113 16.6366 12.5906 16.5532 12.4571 16.4959C12.3237 16.4386 12.1802 16.4084 12.0349 16.4072C11.8897 16.4059 11.7457 16.4336 11.6113 16.4886C11.4768 16.5436 11.3547 16.6248 11.252 16.7275C11.1493 16.8302 11.0681 16.9523 11.0131 17.0867C10.9581 17.2211 10.9305 17.3651 10.9317 17.5104C10.933 17.6556 10.9632 17.7991 11.0205 17.9326C11.0778 18.066 11.1611 18.1867 11.2656 18.2876L15.6406 22.6626C15.8265 22.8486 16.0733 22.9614 16.3356 22.9803C16.598 22.9992 16.8584 22.9229 17.069 22.7654L25.819 16.2029C26.0044 16.0678 26.1426 15.8777 26.2141 15.6597C26.2856 15.4417 26.2867 15.2067 26.2173 14.9881C26.1478 14.7694 26.0114 14.5781 25.8273 14.4412C25.6431 14.3043 25.4206 14.2288 25.1912 14.2254C25.154 14.2235 25.1168 14.2235 25.0796 14.2254L25.0775 14.2232Z" fill="#FADB9E"/>
</g>
<defs>
<clipPath id="clip0_15_766">
<rect width="35" height="35" fill="white"/>
</clipPath>
</defs>
</svg>
